<svg width="22" height="22" viewBox="0 0 22 22" fill="none" xmlns="http://www.w3.org/2000/svg">
<path  clip-rule="evenodd" d="M1.99033 4.00535C2.30665 3.4816 4.0495 1.57658 5.29322 1.63409C5.665 1.6649 5.99364 1.8898 6.26067 2.15065C6.87379 2.74937 8.62897 5.01383 8.72859 5.49034C8.97096 6.65902 7.57833 7.33271 8.00454 8.51064C9.09112 11.1695 10.9634 13.0416 13.6233 14.1271C14.8003 14.5533 15.474 13.1607 16.6428 13.4041C17.1183 13.5037 19.3839 15.2588 19.9826 15.8719C20.2425 16.1379 20.4684 16.4676 20.4992 16.8393C20.5454 18.1487 18.5222 19.9161 18.1278 20.142C17.1974 20.8075 15.9834 20.7962 14.5035 20.1081C10.3739 18.39 3.77426 11.915 2.02422 7.62951C1.35461 6.15787 1.30839 4.93578 1.99033 4.00535Z"  stroke-width="1.5" stroke-linecap="round" stroke-linejoin="round"/>
</svg>
